<?xml version="1.0" encoding="utf-8"?>
<!-- Generator: Adobe Illustrator 21.0.0, SVG Export Plug-In . SVG Version: 6.00 Build 0)  -->
<svg version="1.1" xmlns="http://www.w3.org/2000/svg" xmlns:xlink="http://www.w3.org/1999/xlink" x="0px" y="0px"
	 viewBox="0 0 640.9 320.4" style="enable-background:new 0 0 640.9 320.4;" xml:space="preserve">
<style type="text/css">
	.st0{display:none;}
	.st1{display:inline;}
	.st2{fill:#58595B;}
	.st3{font-family:'CenturyGothic-Bold';}
	.st4{font-size:148.9917px;}
	.st5{fill:#F78321;}
	.st6{font-family:'CenturyGothic';}
	.st7{fill:#BCBEC0;}
	.st8{fill:url(#SVGID_1_);}
	.st9{opacity:0.69;fill:url(#SVGID_2_);}
	.st10{fill:url(#SVGID_3_);}
	.st11{opacity:0.68;fill:url(#SVGID_4_);}
	.st12{fill:url(#SVGID_5_);}
	.st13{fill:url(#SVGID_6_);}
	.st14{fill:url(#SVGID_7_);}
	.st15{opacity:0.4;fill:url(#SVGID_8_);}
	.st16{fill:url(#SVGID_9_);}
	.st17{fill:url(#SVGID_10_);}
	.st18{fill:url(#SVGID_11_);}
</style>
<g id="Layer_3" class="st0">
	<g id="XMLID_20_" class="st1">
		<g id="XMLID_6_">
			<text transform="matrix(1 0 0 1 0 446.5356)" class="st2 st3 st4">b</text>
		</g>
		<g id="XMLID_1_">
			<text transform="matrix(1 0 0 1 91.2246 446.5356)" class="st2 st3 st4">a</text>
		</g>
		<g id="XMLID_7_">
			<text transform="matrix(1 0 0 1 187.0742 446.5356)" class="st2 st3 st4">r</text>
		</g>
		<text id="XMLID_9_" transform="matrix(1 0 0 1 228.7949 446.5356)" class="st5 st6 st4">c</text>
		<text id="XMLID_10_" transform="matrix(1 0 0 1 312.7256 446.5356)" class="st5 st6 st4">a</text>
		<text id="XMLID_14_" transform="matrix(1 0 0 1 405.1016 446.5356)" class="st5 st6 st4">m</text>
		<text id="XMLID_18_" transform="matrix(1 0 0 1 535.2217 446.5356)" class="st5 st6 st4">p</text>
	</g>
	<g class="st1">
		<text transform="matrix(1 0 0 1 221.0098 497.0474)" class="st7 st6" style="font-size:31.986px;">BANGKHEN</text>
	</g>
</g>
<g id="Layer_5">
	
		<linearGradient id="SVGID_1_" gradientUnits="userSpaceOnUse" x1="151.8501" y1="127.3801" x2="326.7274" y2="228.3456" gradientTransform="matrix(-1 -3.644649e-04 -3.644649e-04 1 659.0564 -23.3434)">
		<stop  offset="0" style="stop-color:#FBCF49"/>
		<stop  offset="5.969589e-03" style="stop-color:#FBBF44"/>
		<stop  offset="1.302895e-02" style="stop-color:#FBB441"/>
		<stop  offset="2.056246e-02" style="stop-color:#FBB040"/>
		<stop  offset="8.372329e-02" style="stop-color:#F3903F"/>
		<stop  offset="0.148" style="stop-color:#ED683C"/>
		<stop  offset="0.4246" style="stop-color:#E93E3A"/>
	</linearGradient>
	<path class="st8" d="M272.4,101.2c0,0,29.5,0.7,108.9,105.1c49.7,65.5,123.6,52.5,145.1,17.8s16.2-137.5-111-163
		c0,0,83.2,26,87.2,93.9c4,67.9-83.7,57.6-115.3,26.2C310.3,104.3,272.4,101.2,272.4,101.2z"/>
	
		<linearGradient id="SVGID_2_" gradientUnits="userSpaceOnUse" x1="113.7196" y1="219.9764" x2="396.2613" y2="219.9764" gradientTransform="matrix(-1 -3.644649e-04 -3.644649e-04 1 659.0564 -23.3434)">
		<stop  offset="0" style="stop-color:#FBCF49"/>
		<stop  offset="4.123541e-02" style="stop-color:#FBBF44"/>
		<stop  offset="8.999848e-02" style="stop-color:#FBB441"/>
		<stop  offset="0.142" style="stop-color:#FBB040"/>
		<stop  offset="0.323" style="stop-color:#F3903F"/>
		<stop  offset="0.4466" style="stop-color:#ED683C"/>
		<stop  offset="0.7365" style="stop-color:#E93E3A"/>
	</linearGradient>
	<path class="st9" d="M514.1,137.3c0,0,19.5,84.7-53.4,78c-81.3-7.4-100.2-91.2-197.9-117.5c0,0,42.3,9.1,81.9,93.7
		s87.2,117.5,144.7,98.6s55.9-86.2,55.9-86.2L514.1,137.3z"/>
	
		<linearGradient id="SVGID_3_" gradientUnits="userSpaceOnUse" x1="294.674" y1="242.3993" x2="417.972" y2="242.3993" gradientTransform="matrix(3.986064e-02 0.9992 0.9992 -3.986064e-02 -18.3359 -212.7116)">
		<stop  offset="0" style="stop-color:#58595B"/>
		<stop  offset="0.1666" style="stop-color:#616264"/>
		<stop  offset="0.434" style="stop-color:#78797B"/>
		<stop  offset="0.7665" style="stop-color:#9D9FA1"/>
		<stop  offset="1" style="stop-color:#BCBEC0"/>
	</linearGradient>
	<path class="st10" d="M270.9,100.7c-0.4-1.9-1-3.7-1.7-5.6c-9.2-24.7-38.6-22.9-38.6-22.9L202.1,87c0,0,28-7.6,33.9,11.8
		C246.9,97.1,258.5,97.5,270.9,100.7z"/>
	
		<linearGradient id="SVGID_4_" gradientUnits="userSpaceOnUse" x1="184.5174" y1="232.5683" x2="508.3673" y2="232.5683" gradientTransform="matrix(-1 -3.644649e-04 -3.644649e-04 1 659.0564 -23.3434)">
		<stop  offset="0" style="stop-color:#FBCF49"/>
		<stop  offset="8.154917e-02" style="stop-color:#FBBF44"/>
		<stop  offset="0.178" style="stop-color:#FBB441"/>
		<stop  offset="0.2809" style="stop-color:#FBB040"/>
		<stop  offset="0.6685" style="stop-color:#F3903F"/>
		<stop  offset="0.8876" style="stop-color:#ED683C"/>
		<stop  offset="1" style="stop-color:#E93E3A"/>
	</linearGradient>
	<path class="st11" d="M453.7,234l20.7,86.2c0,0-54.4,5.8-107.5-37.6s-55.7-76.4-98.4-130.9s-93.9-18.2-117.9,11
		c0,0,49.3-82.2,121.8-61.5S366.3,236.6,453.7,234z"/>
	
		<linearGradient id="SVGID_5_" gradientUnits="userSpaceOnUse" x1="235.9219" y1="276.3097" x2="383.675" y2="276.3097" gradientTransform="matrix(-3.986064e-02 0.9992 -0.9992 -3.986064e-02 687.4401 -212.7116)">
		<stop  offset="0" style="stop-color:#FBCF49"/>
		<stop  offset="4.123541e-02" style="stop-color:#FBBF44"/>
		<stop  offset="8.999848e-02" style="stop-color:#FBB441"/>
		<stop  offset="0.142" style="stop-color:#FBB040"/>
		<stop  offset="0.323" style="stop-color:#F3903F"/>
		<stop  offset="0.4466" style="stop-color:#ED683C"/>
		<stop  offset="0.7365" style="stop-color:#E93E3A"/>
	</linearGradient>
	<path class="st12" d="M432.3,29.6c0,0-43.8-12-41.9,26.3c2.2,42.6,45.5,54.3,57.2,105.9c0,0-3.8-22.3-47.2-44.8s-59.6-48-48.5-77.7
		c11.1-29.6,46.2-27.4,46.2-27.4L432.3,29.6z"/>
	
		<linearGradient id="SVGID_6_" gradientUnits="userSpaceOnUse" x1="169.2036" y1="128.0804" x2="345.5138" y2="128.0804" gradientTransform="matrix(-1 -3.644649e-04 -3.644649e-04 1 659.0564 -23.3434)">
		<stop  offset="0" style="stop-color:#58595B"/>
		<stop  offset="0.1666" style="stop-color:#616264"/>
		<stop  offset="0.434" style="stop-color:#78797B"/>
		<stop  offset="0.7665" style="stop-color:#9D9FA1"/>
		<stop  offset="1" style="stop-color:#BCBEC0"/>
	</linearGradient>
	<path class="st13" d="M313.5,108.4c0,0,37.1-43.1,85.3-38.5c44.5,4.2,81.9,40,91,69.8c0,0-19-46.6-68.6-43.9s-69.4,37.1-69.4,37.1
		L313.5,108.4z"/>
	<g>
		<linearGradient id="SVGID_7_" gradientUnits="userSpaceOnUse" x1="60.9877" y1="142.4712" x2="236.2547" y2="142.4712">
			<stop  offset="0" style="stop-color:#FBCF49"/>
			<stop  offset="4.123541e-02" style="stop-color:#FBBF44"/>
			<stop  offset="8.999848e-02" style="stop-color:#FBB441"/>
			<stop  offset="0.142" style="stop-color:#FBB040"/>
			<stop  offset="0.323" style="stop-color:#F3903F"/>
			<stop  offset="0.4466" style="stop-color:#ED683C"/>
			<stop  offset="0.7365" style="stop-color:#E93E3A"/>
		</linearGradient>
		<path class="st14" d="M199.5,141c0,0-6.1-3.1-11.3-5.4c-4.9-2.1-8.8-2.8-8.8-2.8s1.7,1.8,3.1,3.3c1.4,1.5,2.5,2.6,2.5,2.6
			s6.1,5.6,8.6,13c0,0.1,0.1,0.3,0.1,0.4c8.5-2.4,15-3.4,17.1-3.7C205.3,144.5,199.5,141,199.5,141z"/>
		<linearGradient id="SVGID_8_" gradientUnits="userSpaceOnUse" x1="60.9877" y1="190.5289" x2="236.2547" y2="190.5289">
			<stop  offset="0" style="stop-color:#FBCF49"/>
			<stop  offset="4.123541e-02" style="stop-color:#FBBF44"/>
			<stop  offset="8.999848e-02" style="stop-color:#FBB441"/>
			<stop  offset="0.142" style="stop-color:#FBB040"/>
			<stop  offset="0.323" style="stop-color:#F3903F"/>
			<stop  offset="0.4466" style="stop-color:#ED683C"/>
			<stop  offset="0.7365" style="stop-color:#E93E3A"/>
		</linearGradient>
		<path class="st15" d="M195,165.1c0,0-1.3,8.2-7.3,10.6c-5.6,2.3-11.4-2.9-11.4-2.9s-2.2-2.7-4.5-5.9
			c-36.6,25.9-41.6,62.9-10.4,65.5c21.4,1.8,53.3-26.2,74.1-47.2c-0.3-1.9-0.9-5-2-8.3c-2-5.9-6.1-11.6-6.1-11.6s-6.2-8.2-13.6-14.4
			c-1-0.8-2-1.6-3.1-2.4c-5.9,1.7-11.4,3.7-16.5,6C195.5,160.2,195,165.1,195,165.1z"/>
		<linearGradient id="SVGID_9_" gradientUnits="userSpaceOnUse" x1="60.9877" y1="204.4837" x2="236.2547" y2="204.4837">
			<stop  offset="0" style="stop-color:#FBCF49"/>
			<stop  offset="4.123541e-02" style="stop-color:#FBBF44"/>
			<stop  offset="8.999848e-02" style="stop-color:#FBB441"/>
			<stop  offset="0.142" style="stop-color:#FBB040"/>
			<stop  offset="0.323" style="stop-color:#F3903F"/>
			<stop  offset="0.4466" style="stop-color:#ED683C"/>
			<stop  offset="0.7365" style="stop-color:#E93E3A"/>
		</linearGradient>
		<path class="st16" d="M126.2,206.7c8.6-22.2,25.7-36.1,42.3-44.7c-1.2-1.9-2-3.3-2-3.3s-1.9-4.7-4.8-9c-3.4-5-8-9.8-8-9.8
			s-5.1-6.4-11.2-9.2c-5.8-2.6-12.7-1.6-12.7-1.6s2.2,1.6,3.7,3.9c1.2,1.9,1.8,4.5,1.8,4.5s1.5,3.4,1,10.2c-0.4,5.9-3.4,8.2-3.4,8.2
			s-3.9,5.6-13.6,6.6c-7.4,0.8-15.9-2.3-15.9-2.3s-3.9-1.3-7.5-5.3c-3.2-3.6-2.4-6.4-2.4-6.4s0.9-5.7,0.9-10.8c0-5.4-1-10.2-1-10.2
			s-1.4-4.1-4.9-7.8c-2.6-2.7-6.3-4-6.3-4s-4-1.7-8.2-2.1c-4-0.4-8.3,0.4-8.3,0.4s13.9,7,15.4,20.2c1.1,9.9-13.3,20-13.3,20
			s-6.6,5.7-5.4,12.6c1.3,7.2,10.5,11.1,10.5,11.1s6.4,3.9,18.3,6.2c8.4,1.6,11.4,2.9,11.4,2.9s4.6,1.2,7.5,4c3,2.8,4.3,7.1,4.3,7.1
			s2,5.6-2.2,12c-4.1,6.2-9.2,9.9-9.2,9.9s-8.8,7.1-20.4,2c-9.7-4.3-15.4-18.9-15.4-18.9s-5.6,7.6-6.2,15.8c-0.8,11.4,4,16,4,16
			s3,3,8.1,6c4,2.4,9.6,4.6,14.5,6.1c6.2,1.9,12.6,5.4,12.6,5.4s6.2,5.6,7.4,10.4c1.5,6.6-1.5,7.6-1.5,7.6s-0.9,2.5-12.1,0.3
			c-6.6-1.3-14.5-4.9-14.5-4.9s1.1,3.2,3,5.8c2,2.7,6.8,7.2,6.8,7.2s10.5,10.8,21.9,14c17.5,4.9,31.8,2.1,31.8,2.1s16.4-4,30.2-11.3
			c0.7-0.4,1.5-0.8,2.2-1.2C137.6,283.6,109.6,249.7,126.2,206.7z"/>
	</g>
	
		<linearGradient id="SVGID_10_" gradientUnits="userSpaceOnUse" x1="294.674" y1="226.5636" x2="417.972" y2="226.5636" gradientTransform="matrix(3.986064e-02 0.9992 0.9992 -3.986064e-02 -18.3359 -212.7116)">
		<stop  offset="0" style="stop-color:#58595B"/>
		<stop  offset="0.1666" style="stop-color:#616264"/>
		<stop  offset="0.434" style="stop-color:#78797B"/>
		<stop  offset="0.7665" style="stop-color:#9D9FA1"/>
		<stop  offset="1" style="stop-color:#BCBEC0"/>
	</linearGradient>
	<path class="st17" d="M189.5,196.4c1.1-3.9,7.6-20.1,39.2-36.5c12.3-6.4,21.9-13,29-20c-8-7.3-16.3-11.9-24.5-14.3
		C223.4,148.8,197.8,161.6,189.5,196.4z"/>
	
		<linearGradient id="SVGID_11_" gradientUnits="userSpaceOnUse" x1="368.4648" y1="238.9105" x2="537.6536" y2="238.9105" gradientTransform="matrix(-1 -3.644649e-04 -3.644649e-04 1 659.0564 -23.3434)">
		<stop  offset="0" style="stop-color:#BCBEC0"/>
		<stop  offset="0.2335" style="stop-color:#9D9FA1"/>
		<stop  offset="0.566" style="stop-color:#78797B"/>
		<stop  offset="0.8334" style="stop-color:#616264"/>
		<stop  offset="1" style="stop-color:#58595B"/>
	</linearGradient>
	<path class="st18" d="M290.5,204.1l-34.3-41.3c0,0-60.6,72.5-94.8,69.7c-40.2-3.4-20.3-63.8,50-84.1c0,0-65.3,7-85.2,58.3
		s23.8,89.8,72.2,70.9S290.5,204.1,290.5,204.1z"/>
</g>
</svg>
