<?xml version="1.0" encoding="utf-8"?>
<!-- Generator: Adobe Illustrator 21.0.0, SVG Export Plug-In . SVG Version: 6.00 Build 0)  -->
<svg version="1.1" id="Layer_1" xmlns="http://www.w3.org/2000/svg" xmlns:xlink="http://www.w3.org/1999/xlink" x="0px" y="0px"
	 viewBox="0 0 640.9 165.6" style="enable-background:new 0 0 640.9 165.6;" xml:space="preserve">
<style type="text/css">
	.st0{fill:#58595B;}
	.st1{fill:#F78321;}
	.st2{enable-background:new    ;}
	.st3{fill:#BCBEC0;}
</style>
<g id="XMLID_20_">
	<path class="st0" d="M30.6,5.4v39.3c3.6-3.6,7.5-6.3,11.6-8.1c4.2-1.8,8.6-2.7,13.4-2.7c10.3,0,19.1,3.9,26.3,11.7
		c7.2,7.8,10.8,17.8,10.8,30c0,11.8-3.7,21.6-11.2,29.6c-7.5,7.9-16.3,11.9-26.6,11.9c-4.6,0-8.8-0.8-12.7-2.4s-7.8-4.3-11.7-8v8.4
		H10.8V5.4H30.6z M51.4,52.3c-6.3,0-11.4,2.1-15.6,6.4c-4.1,4.3-6.2,9.8-6.2,16.7c0,7,2.1,12.7,6.2,17.1c4.1,4.3,9.3,6.5,15.6,6.5
		c6.1,0,11.2-2.2,15.3-6.6s6.2-10,6.2-16.9c0-6.8-2-12.4-6.1-16.7C62.8,54.4,57.6,52.3,51.4,52.3z"/>
	<path class="st0" d="M160.5,36h19.9v79.2h-19.9v-8.4c-3.9,3.7-7.8,6.3-11.7,8c-3.9,1.6-8.1,2.4-12.7,2.4c-10.2,0-19.1-4-26.5-11.9
		S98.4,87.5,98.4,75.7c0-12.2,3.6-22.2,10.8-30c7.2-7.8,16-11.7,26.3-11.7c4.7,0,9.2,0.9,13.4,2.7s8,4.5,11.6,8.1V36z M139.6,52.3
		c-6.1,0-11.2,2.2-15.3,6.5c-4.1,4.3-6.1,9.9-6.1,16.7s2.1,12.5,6.2,16.9s9.2,6.6,15.3,6.6c6.2,0,11.4-2.2,15.5-6.5s6.2-10,6.2-17.1
		c0-6.9-2.1-12.5-6.2-16.7C151.1,54.4,145.9,52.3,139.6,52.3z"/>
	<path class="st0" d="M193.3,36h17v10c1.8-3.9,4.3-6.9,7.3-8.9c3.1-2,6.4-3.1,10-3.1c2.6,0,5.3,0.7,8.1,2l-6.2,17.1
		c-2.3-1.2-4.2-1.7-5.7-1.7c-3.1,0-5.6,1.9-7.7,5.7c-2.1,3.8-3.2,11.2-3.2,22.3l0.1,3.9v32h-19.7L193.3,36L193.3,36z"/>
	<path class="st1" d="M317.8,52.4l-8.1,5c-7-9.3-16.5-13.9-28.6-13.9c-9.6,0-17.6,3.1-24,9.3s-9.6,13.7-9.6,22.6
		c0,5.8,1.5,11.2,4.4,16.3s7,9,12.1,11.8s10.8,4.2,17.2,4.2c11.6,0,21.1-4.6,28.5-13.9l8.1,5.3c-3.8,5.7-8.9,10.1-15.2,13.3
		c-6.4,3.1-13.6,4.7-21.8,4.7c-12.5,0-22.9-4-31.1-11.9c-8.2-8-12.4-17.6-12.4-29c0-7.7,1.9-14.8,5.8-21.4
		c3.9-6.6,9.2-11.7,15.9-15.4s14.3-5.5,22.6-5.5c5.2,0,10.3,0.8,15.2,2.4c4.9,1.6,9,3.7,12.4,6.3C312.5,45.2,315.4,48.4,317.8,52.4z
		"/>
	<path class="st1" d="M403.7,36v79.2h-10v-13.6c-4.3,5.2-9.1,9.1-14.4,11.7s-11.1,3.9-17.4,3.9c-11.2,0-20.8-4.1-28.7-12.2
		c-7.9-8.1-11.9-18-11.9-29.6c0-11.4,4-21.1,12-29.2s17.6-12.1,28.9-12.1c6.5,0,12.4,1.4,17.6,4.1c5.3,2.8,9.9,6.9,13.9,12.4V36
		H403.7z M363,43.7c-5.7,0-10.9,1.4-15.7,4.2c-4.8,2.8-8.6,6.7-11.4,11.7s-4.2,10.4-4.2,16c0,5.6,1.4,10.9,4.3,16s6.7,9,11.5,11.9
		c4.8,2.8,10,4.3,15.5,4.3c5.6,0,10.9-1.4,15.8-4.2c5-2.8,8.8-6.6,11.5-11.4s4-10.2,4-16.2c0-9.2-3-16.8-9-23
		C379.3,46.8,371.8,43.7,363,43.7z"/>
	<path class="st1" d="M417.2,36h10.2v13.7c3.5-5,7.2-8.7,10.9-11.1c5.1-3.1,10.6-4.7,16.2-4.7c3.8,0,7.5,0.8,10.9,2.3s6.3,3.5,8.4,6
		c2.2,2.5,4.1,6.1,5.7,10.7c3.4-6.2,7.6-10.9,12.7-14.1s10.5-4.8,16.4-4.8c5.5,0,10.3,1.4,14.5,4.1s7.3,6.6,9.3,11.6
		c2,4.9,3,12.4,3,22.3v43.2H525V71.9c0-8.5-0.6-14.3-1.8-17.5s-3.3-5.7-6.2-7.7c-2.9-1.9-6.4-2.9-10.5-2.9c-4.9,0-9.4,1.5-13.5,4.4
		s-7.1,6.8-9,11.6c-1.9,4.9-2.8,12.9-2.8,24.3v31H471V74.6c0-9.6-0.6-16-1.8-19.5c-1.2-3.4-3.3-6.2-6.2-8.2c-3-2.1-6.5-3.1-10.5-3.1
		c-4.7,0-9.1,1.4-13.2,4.3c-4.1,2.8-7.1,6.7-9.1,11.5s-2.9,12.1-2.9,22v33.5h-10.2V36H417.2z"/>
	<path class="st1" d="M547.5,36h10.2v14.5c4-5.5,8.6-9.7,13.9-12.4c5.2-2.8,11.1-4.1,17.5-4.1c11.2,0,20.9,4,28.9,12.1
		s12,17.8,12,29.2c0,11.6-4,21.5-11.9,29.6s-17.5,12.2-28.7,12.2c-6.3,0-12.1-1.3-17.4-3.9c-5.3-2.6-10.1-6.5-14.3-11.7v42.6h-10.2
		V36z M588.3,43.7c-8.8,0-16.2,3.1-22.2,9.2c-6,6.2-9,13.8-9,23c0,6,1.3,11.4,4,16.2s6.5,8.6,11.5,11.4s10.3,4.2,15.9,4.2
		c5.5,0,10.6-1.4,15.4-4.3c4.8-2.8,8.6-6.8,11.5-11.9s4.3-10.4,4.3-16s-1.4-10.9-4.2-16s-6.6-9-11.4-11.7
		C599.1,45.1,593.9,43.7,588.3,43.7z"/>
</g>
<g class="st2">
	<path class="st3" d="M235.7,142.7h4.5c1.8,0,3.2,0.2,4.2,0.6c1,0.4,1.8,1.1,2.3,2c0.6,0.9,0.9,1.9,0.9,3c0,1-0.2,1.9-0.7,2.8
		c-0.5,0.8-1.2,1.5-2.2,2c1.2,0.4,2.1,0.9,2.8,1.4s1.1,1.2,1.5,2s0.5,1.6,0.5,2.5c0,1.8-0.7,3.4-2,4.7s-3.2,1.9-5.4,1.9h-6.3v-22.9
		H235.7z M237.9,144.9v7.4h1.3c1.6,0,2.8-0.1,3.5-0.4c0.8-0.3,1.3-0.8,1.8-1.4c0.4-0.6,0.7-1.4,0.7-2.1c0-1.1-0.4-1.9-1.1-2.5
		s-1.9-0.9-3.5-0.9h-2.7V144.9z M237.9,154.6v8.8h2.8c1.7,0,2.9-0.2,3.7-0.5s1.4-0.8,1.9-1.5s0.7-1.5,0.7-2.3c0-1-0.3-1.9-1-2.7
		s-1.6-1.3-2.8-1.6c-0.8-0.2-2.1-0.3-4.1-0.3h-1.2V154.6z"/>
	<path class="st3" d="M263.4,142.7l10.7,23h-2.5l-3.6-7.6h-9.9l-3.6,7.6h-2.6l10.9-23H263.4z M263.1,147.5l-3.9,8.3h7.9L263.1,147.5
		z"/>
	<path class="st3" d="M277.6,165.6v-23h0.5l15.3,17.6v-17.6h2.3v23h-0.5L280,148.2v17.4H277.6z"/>
	<path class="st3" d="M323.5,146.5l-1.8,1.7c-1.3-1.3-2.7-2.2-4.2-2.9s-3-1-4.5-1c-1.8,0-3.5,0.4-5.1,1.3c-1.6,0.9-2.9,2.1-3.8,3.6
		c-0.9,1.5-1.3,3.1-1.3,4.8s0.5,3.4,1.4,4.9c0.9,1.5,2.2,2.8,3.8,3.7s3.4,1.3,5.4,1.3c2.4,0,4.4-0.7,6-2c1.6-1.3,2.6-3.1,2.9-5.2
		H315v-2.2h9.9c0,3.6-1.1,6.4-3.2,8.5c-2.1,2.1-4.9,3.1-8.4,3.1c-4.2,0-7.6-1.4-10.1-4.3c-1.9-2.2-2.9-4.8-2.9-7.7
		c0-2.2,0.5-4.2,1.6-6.1c1.1-1.9,2.6-3.3,4.5-4.4c1.9-1.1,4.1-1.6,6.5-1.6c1.9,0,3.8,0.4,5.5,1.1C320.1,143.8,321.8,145,323.5,146.5
		z"/>
	<path class="st3" d="M329.2,142.7h2.3v8.6l9.2-8.6h3.1l-11,10.3l11.9,12.7h-3.1L331.5,155v10.7h-2.3V142.7z"/>
	<path class="st3" d="M348.1,142.7h2.3v9.6h11.7v-9.6h2.3v23h-2.3v-11.1h-11.7v11.1h-2.3V142.7z"/>
	<path class="st3" d="M370,142.7h13.2v2.2h-10.9v7.2h10.8v2.2h-10.8v9h10.8v2.2H370V142.7z"/>
	<path class="st3" d="M387.1,165.6v-23h0.5l15.3,17.6v-17.6h2.3v23h-0.5l-15.2-17.4v17.4H387.1z"/>
</g>
</svg>
